<?xml version="1.0" standalone="no"?>
<!DOCTYPE svg PUBLIC "-//W3C//DTD SVG 20010904//EN"
 "http://www.w3.org/TR/2001/REC-SVG-20010904/DTD/svg10.dtd">
<svg version="1.0" xmlns="http://www.w3.org/2000/svg"
 width="88.000000pt" height="88.000000pt" viewBox="0 0 128.000000 128.000000"
 preserveAspectRatio="xMidYMid meet">

<g transform="translate(0.000000,128.000000) scale(0.100000,-0.100000)"
fill="#000000" stroke="none">
<path d="M545 1266 c-34 -15 -160 -131 -181 -167 -41 -71 -57 -119 -62 -181
-5 -78 2 -118 23 -118 11 0 15 -13 15 -51 0 -60 15 -57 24 6 4 25 11 45 15 45
4 0 8 28 9 63 3 82 11 107 49 151 37 42 43 44 36 15 -4 -16 -2 -20 8 -17 8 3
16 13 17 24 2 10 10 24 18 30 7 6 15 20 17 31 1 11 11 28 20 37 21 22 21 23
-4 37 -12 6 -19 7 -15 1 3 -5 -1 -15 -9 -22 -13 -11 -18 -10 -30 6 -17 23 -15
34 11 48 10 6 23 16 27 21 5 6 5 -1 2 -14 -6 -18 -4 -23 6 -19 40 15 59 18 59
10 0 -5 11 -14 25 -20 20 -9 23 -9 18 3 -3 8 -1 15 4 15 6 0 10 13 11 30 1 28
-1 29 -31 23 -18 -3 -29 -3 -26 1 3 4 26 10 50 15 l44 9 -60 1 c-33 0 -73 -6
-90 -13z m-123 -248 c-8 -8 -9 -4 -5 13 4 13 8 18 11 10 2 -7 -1 -18 -6 -23z"/>
<path d="M726 1270 c5 -5 18 -11 29 -13 34 -7 55 -19 55 -32 0 -7 9 -11 23 -8
16 3 35 -8 70 -41 26 -25 46 -46 44 -46 -3 0 15 -21 39 -47 36 -39 42 -49 31
-62 -8 -9 -8 -12 -1 -8 7 4 16 1 21 -6 10 -13 12 -212 2 -221 -15 -15 -39 8
-39 36 0 17 4 27 10 23 6 -4 2 8 -8 27 -10 18 -17 38 -15 45 2 6 -1 14 -6 18
-6 3 -11 17 -11 31 0 14 -7 32 -15 41 -19 18 -14 39 8 37 9 -1 14 2 11 8 -3 5
-11 7 -17 5 -7 -2 -20 2 -29 11 -16 13 -17 12 -15 -17 1 -17 5 -31 8 -31 7 0
19 -39 24 -75 2 -11 9 -38 17 -60 9 -25 11 -52 7 -68 -6 -21 -3 -29 12 -38 11
-5 24 -21 29 -35 13 -32 32 -30 48 5 21 48 18 243 -5 283 -10 18 -20 35 -23
38 -3 3 -22 28 -42 55 -51 69 -88 101 -150 130 -52 24 -132 35 -112 15z"/>
<path d="M811 1191 c-12 -8 -12 -14 -3 -33 l11 -23 -2 25 c-1 15 3 24 11 23 6
-2 12 2 12 7 0 12 -10 13 -29 1z"/>
<path d="M680 1181 c0 -18 18 -21 30 -6 10 13 9 15 -9 15 -11 0 -21 -4 -21 -9z"/>
<path d="M495 1170 c3 -5 10 -10 16 -10 5 0 9 5 9 10 0 6 -7 10 -16 10 -8 0
-12 -4 -9 -10z"/>
<path d="M600 1176 c0 -2 7 -7 16 -10 8 -3 12 -2 9 4 -6 10 -25 14 -25 6z"/>
<path d="M709 1144 c-7 -8 -6 -14 2 -20 8 -4 9 -3 5 4 -4 7 -1 12 8 12 8 0 17
4 20 8 8 14 -23 10 -35 -4z"/>
<path d="M769 1153 c-1 -5 -1 -11 0 -15 0 -5 -6 -8 -14 -8 -8 0 -15 -7 -15
-16 0 -10 -5 -14 -16 -10 -9 3 -12 2 -9 -4 4 -6 -17 -21 -46 -34 -36 -15 -47
-25 -37 -29 24 -9 58 3 59 22 0 11 2 12 6 3 3 -9 17 1 40 28 21 24 41 39 50
36 11 -4 11 -1 3 14 -11 21 -19 25 -21 13z"/>
<path d="M836 1134 c-4 -9 -4 -19 -1 -22 2 -3 7 3 11 12 4 9 4 19 1 22 -2 3
-7 -3 -11 -12z"/>
<path d="M880 1130 c0 -5 5 -10 10 -10 6 0 10 5 10 10 0 6 -4 10 -10 10 -5 0
-10 -4 -10 -10z"/>
<path d="M600 1092 c-55 -36 -70 -50 -57 -55 7 -2 30 10 52 29 43 35 46 52 5
26z"/>
<path d="M775 1100 c3 -5 10 -10 16 -10 5 0 9 5 9 10 0 6 -7 10 -16 10 -8 0
-12 -4 -9 -10z"/>
<path d="M882 1080 c0 -14 2 -19 5 -12 2 6 2 18 0 25 -3 6 -5 1 -5 -13z"/>
<path d="M737 1073 c-4 -3 -7 -13 -7 -22 1 -13 3 -13 11 2 11 19 8 33 -4 20z"/>
<path d="M841 1044 c-7 -8 -10 -18 -7 -21 7 -7 36 16 36 28 0 13 -13 10 -29
-7z"/>
<path d="M950 1030 c0 -6 7 -10 15 -10 8 0 15 2 15 4 0 2 -7 6 -15 10 -8 3
-15 1 -15 -4z"/>
<path d="M475 946 c-6 -6 -15 -17 -19 -24 -7 -12 -4 -12 14 -2 24 13 80 6 111
-13 11 -7 19 -22 19 -34 0 -27 22 -30 41 -7 11 14 8 21 -28 55 -35 33 -48 38
-85 37 -24 0 -48 -6 -53 -12z m155 -56 c0 -5 -2 -10 -4 -10 -3 0 -8 5 -11 10
-3 6 -1 10 4 10 6 0 11 -4 11 -10z"/>
<path d="M748 934 c-11 -11 1 -24 16 -18 8 3 17 1 21 -5 8 -13 52 -14 60 -2 3
5 1 12 -3 15 -16 10 -87 18 -94 10z"/>
<path d="M415 890 c-16 -7 -11 -9 20 -9 29 -1 36 2 25 9 -17 11 -19 11 -45 0z"/>
<path d="M495 873 c-34 -5 -55 -20 -54 -37 0 -7 2 -7 5 1 3 7 11 10 19 7 7 -3
16 -1 20 5 4 8 11 6 21 -4 20 -20 34 -19 34 3 1 16 2 16 15 -2 18 -24 39 -12
25 15 -11 19 -24 21 -85 12z"/>
<path d="M720 854 c0 -14 3 -14 15 -4 8 7 15 14 15 16 0 2 -7 4 -15 4 -8 0
-15 -7 -15 -16z"/>
<path d="M820 850 c0 -7 -8 -9 -20 -5 -15 5 -20 2 -20 -13 0 -30 30 -36 56
-11 l23 21 -6 -21 c-4 -15 -1 -21 12 -21 12 0 15 5 9 23 -3 12 -7 23 -8 23 0
1 -11 5 -23 8 -15 5 -23 3 -23 -4z"/>
<path d="M617 833 c-3 -3 -3 -11 0 -18 3 -11 -4 -13 -29 -11 -18 2 -25 1 -15
-1 9 -2 22 -14 28 -25 10 -19 12 -19 21 -5 5 9 9 20 9 24 0 5 5 13 10 19 10
12 -14 28 -24 17z"/>
<path d="M660 827 c0 -7 9 -20 20 -30 11 -9 20 -24 20 -32 0 -17 50 -68 58
-60 3 2 -7 17 -21 31 -16 16 -27 38 -27 54 0 19 -7 30 -25 38 -19 9 -25 9 -25
-1z"/>
<path d="M750 830 c0 -5 5 -10 11 -10 5 0 7 5 4 10 -3 6 -8 10 -11 10 -2 0 -4
-4 -4 -10z"/>
<path d="M446 798 c3 -4 9 -8 15 -8 5 0 9 4 9 8 0 5 -7 9 -15 9 -8 0 -12 -4
-9 -9z"/>
<path d="M740 801 c0 -12 21 -27 50 -36 24 -7 24 -7 -5 19 -31 27 -45 32 -45
17z"/>
<path d="M900 801 c0 -6 5 -13 10 -16 6 -3 10 1 10 9 0 9 -4 16 -10 16 -5 0
-10 -4 -10 -9z"/>
<path d="M936 795 c-3 -8 -1 -15 4 -15 6 0 10 7 10 15 0 8 -2 15 -4 15 -2 0
-6 -7 -10 -15z"/>
<path d="M309 784 c-5 -51 8 -144 22 -144 4 0 6 12 3 28 -3 15 -6 46 -7 69 -2
36 -15 72 -18 47z"/>
<path d="M861 754 c0 -11 3 -14 6 -6 3 7 2 16 -1 19 -3 4 -6 -2 -5 -13z"/>
<path d="M961 685 c-1 -47 3 -85 8 -85 12 0 36 133 28 154 -4 9 -13 16 -21 16
-10 0 -14 -19 -15 -85z"/>
<path d="M903 753 c9 -2 23 -2 30 0 6 3 -1 5 -18 5 -16 0 -22 -2 -12 -5z"/>
<path d="M539 729 c-9 -18 -8 -25 9 -42 14 -13 26 -17 39 -12 16 6 16 8 -6 16
-17 7 -22 15 -18 29 7 28 -10 35 -24 9z"/>
<path d="M580 715 c0 -8 7 -15 15 -15 8 0 15 -4 15 -10 0 -5 9 -10 20 -10 24
0 28 35 4 44 -28 11 -54 6 -54 -9z"/>
<path d="M672 708 c5 -15 37 -18 41 -3 1 6 -9 12 -22 13 -16 3 -22 -1 -19 -10z"/>
<path d="M1017 703 c-10 -16 -12 -73 -3 -75 14 -4 29 63 18 74 -5 5 -12 6 -15
1z"/>
<path d="M708 673 c7 -3 16 -2 19 1 4 3 -2 6 -13 5 -11 0 -14 -3 -6 -6z"/>
<path d="M1041 637 c-6 -15 -20 -37 -31 -49 -11 -12 -20 -31 -20 -43 0 -26
-18 -45 -36 -38 -8 3 -17 -3 -20 -13 -3 -11 -24 -56 -45 -101 -48 -102 -57
-153 -35 -184 15 -22 15 -21 10 27 -6 45 -1 61 39 149 30 65 52 101 64 104 29
5 40 19 48 59 4 20 16 49 27 64 11 16 18 34 15 41 -3 6 -10 0 -16 -16z"/>
<path d="M785 640 c3 -5 8 -10 11 -10 2 0 4 5 4 10 0 6 -5 10 -11 10 -5 0 -7
-4 -4 -10z"/>
<path d="M330 620 c0 -5 5 -10 11 -10 5 0 7 5 4 10 -3 6 -8 10 -11 10 -2 0 -4
-4 -4 -10z"/>
<path d="M604 614 c4 -12 2 -15 -9 -11 -8 4 -17 2 -20 -3 -3 -4 1 -11 7 -13 7
-3 -4 -6 -24 -6 -35 -1 -49 -13 -30 -25 16 -9 82 6 82 19 0 10 9 11 42 2 34
-8 38 -12 22 -18 -22 -9 -21 -9 21 -13 17 -2 41 -7 53 -10 16 -6 22 -3 22 8 0
9 -5 16 -11 16 -6 0 -22 9 -36 20 -14 11 -38 20 -53 20 -15 0 -33 7 -40 15
-17 20 -34 19 -26 -1z"/>
<path d="M331 580 c11 -6 19 -30 23 -63 4 -29 14 -66 21 -81 20 -37 19 -106
-1 -134 -8 -12 -14 -28 -12 -34 2 -6 12 2 22 17 21 32 26 128 9 160 -6 11 -14
43 -18 70 -8 56 -20 75 -44 75 -15 -1 -15 -1 0 -10z"/>
<path d="M625 560 c3 -5 8 -10 11 -10 2 0 4 5 4 10 0 6 -5 10 -11 10 -5 0 -7
-4 -4 -10z"/>
<path d="M584 511 c0 -18 6 -21 48 -21 38 0 46 3 42 15 -4 8 -16 15 -28 15
-11 0 -30 3 -41 6 -16 4 -21 0 -21 -15z"/>
<path d="M630 380 c-22 -14 33 -32 62 -20 23 9 23 9 -2 9 -15 1 -30 5 -36 11
-5 5 -15 6 -24 0z"/>
<path d="M235 225 c-50 -18 -115 -43 -145 -57 -30 -14 -63 -28 -73 -31 -9 -4
-17 -11 -17 -17 0 -13 28 -6 75 17 17 8 39 16 50 19 11 2 21 8 23 14 2 5 14
10 26 10 12 0 28 6 34 12 10 10 15 10 22 -2 7 -11 12 -12 21 -3 6 6 18 9 27 6
10 -4 13 -2 8 5 -19 32 123 -21 167 -61 15 -14 27 -24 27 -21 0 2 26 -9 58
-25 75 -38 169 -61 246 -61 54 0 67 4 89 25 13 14 30 39 37 55 l13 30 31 -18
c17 -10 55 -21 83 -25 28 -3 71 -16 95 -28 46 -24 55 -28 103 -36 29 -5 29 -4
9 10 -11 9 -41 24 -65 33 -24 9 -51 23 -59 30 -8 6 -37 14 -65 17 -57 5 -128
30 -133 46 -2 6 -12 16 -22 21 -17 9 -18 6 -17 -34 2 -54 -28 -92 -81 -102
-77 -15 -255 48 -356 126 -28 21 -63 48 -78 59 -31 25 -22 26 -133 -14z"/>
<path d="M567 249 c7 -7 15 -10 18 -7 3 3 -2 9 -12 12 -14 6 -15 5 -6 -5z"/>
<path d="M600 242 c0 -7 48 -32 62 -32 4 0 8 10 7 23 0 12 -3 16 -6 10 -2 -7
-11 -13 -19 -13 -9 0 -13 4 -10 8 2 4 -4 9 -15 9 -10 1 -19 -1 -19 -5z"/>
<path d="M470 202 c0 -12 19 -26 26 -19 2 2 -2 10 -11 17 -9 8 -15 8 -15 2z"/>
</g>
</svg>
